<?xml version="1.0" ?><!DOCTYPE svg  PUBLIC '-//W3C//DTD SVG 1.1//EN'  'http://www.w3.org/Graphics/SVG/1.1/DTD/svg11.dtd'><svg enable-background="new 0 0 128 128" id="Layer_1" version="1.1" viewBox="0 0 128 128" xml:space="preserve" xmlns="http://www.w3.org/2000/svg" xmlns:xlink="http://www.w3.org/1999/xlink"><path d="M42.2,40l-0.3,0.9h-0.4H41l-0.5,0.3l-2.6,1.6l-0.1,0l0.6-1.2l1-0.4l1.4-0.6l0-0.1L42.2,40 M30.8,40.4  L30.8,40.4l0.9,0.4l2,0.8l0.2,1.1l0.5,2.1l-2.6,1.6h2.9l0.2,1.1l-0.2,0.1L34,47.9l-0.3,0.8l-0.9,2.2L30.2,53l-0.6,0.5l0,0.4  l-1.9-0.5L25.8,53l-0.4,1.4H25h-0.7l-0.5,0.4L23,55.4C24.4,49.9,27.1,44.7,30.8,40.4 M36.8,46.4L36.4,47l-0.7,0.3l0.4-0.8H36.8   M34.9,68.8l1.3,1l0.6,0.5l0.8-0.1l1.5-0.2l0.7,1.9l0.4,1l1.1,0.2l1.4,0.3l0.8,1.6l0.3,0.6l0.6,0.3l0.2,0.1c2,1,4.1,2.1,6.1,3.1  l-0.1,0.7L49,82.1l-0.4,0.6l0.1,0.7l0.3,3l-0.6,1.4L47,88.1l-0.8,0.2l-0.4,0.6l-1.1,1.6L44,91.4l0.5,1l0.1,0.3l-0.9,2.2l-1.2,0.4  l-0.9,0.3l-0.3,0.9l-0.1,0.4c-0.9-0.5-1.8-1-2.6-1.6l0.3-1.1l0.1-0.6l-0.3-0.6L38,91.3l0.1-3.2l0-0.7l-0.4-0.6l-1.2-1.7l-0.1-0.2  l-0.2-0.2l-2.5-2.2l-2.2-4l0.5-1.8l0.2-0.7l-0.2-0.4l0.3-0.5l0.1-0.2l0.1-0.2l1.1-3l0.3,0.1v-2.2L34.9,68.8 M37.7,31.7  C27.1,38.6,20,50.5,19.9,64.1l3.1,1.8l3.2,0.9l1.4,1.8l2.2,1.6l1.3-0.2l0.9,0.4v0.3L30.7,74l-0.9,1.4l0.3,0.7l-0.8,2.6l2.8,5.1  l2.8,2.5l1.2,1.7L36,91.6l0.9,2.1l-0.6,2.5c1.7,1.2,3.5,2.3,5.4,3.3l1-1l0.5-1.2l2-0.7l1.5-3.9l-0.5-1l1.1-1.6l2.3-0.5l1.2-2.8  l-0.3-3.5l1.9-2.6l0.3-2.6c-2.5-1.3-5.1-2.6-7.6-3.9L44,71.7l-2.3-0.5l-1.2-3.3l-3.1,0.3l-2.6-1.9L32,68.7v0.4  c-0.8-0.2-2.2-0.3-3-0.7l-1-1.7v-1.9l-1.5,0.2c0.2-1.2,0.7-2.9,0.8-3.7h-1.1l-1.1,1.4l-1.1,0.5l-1.5-0.9l-0.2-1.9l0.3-2.1l2.3-1.8  h1.9l0.3-1l2.3,0.6l1.7,2.1l0.3-3.5l2.9-2.4l1.1-2.6l2.2-0.9l1.2-1.7l2.8-0.5l1.4-2c-1.4,0-2.8,0-4.2,0l2.6-1.6h1.9L46,42l0.3-1  l-0.9-0.9l-1.1-0.3l0.3-1l-0.8-1.6L42,37.9l0.3-1.4l-2.2-1.2l-1.7,3l0.2,1.1L36.9,40l-1.1,2.3l-0.5-2.1L32.4,39l-0.5-1.6l3.9-2.3  l1.7-1.6L37.7,31.7L37.7,31.7z" fill="#3B97D3"/><path d="M37,34.9h1.5l0.8-1.7c0.7-0.5,1.3-0.9,2-1.4l1.5,0.5c1,0.7,2.1,1.4,3.1,2.1l1.5-1.4l-1.7-0.7l-0.8-1.6  l-2.9-0.3L42,29.5l-1,0.3c-0.2,0.1-0.3,0.2-0.5,0.2L40,31.1l-0.3-0.6c-0.2,0.1-0.5,0.3-0.7,0.4l0.1,1.1l-1.2,1L37,34.9z" fill="#3B97D3"/><polygon fill="#3B97D3" points="46,45.3 46.9,43.9 45.5,42.8 "/><path d="M58.9,27.4c0.4,0,0.8,0,1.1,0l0.7,0.3l-0.8,2.1c-2,0.9-3.9,1.6-5.8,2.2l-0.7,0.2l-0.2,0.4V32v-1.4v-1  l-0.8-0.6l-0.7-0.5l2.6-0.7C55.8,27.5,57.4,27.4,58.9,27.4 M58.9,25.4c-1.7,0-3.5,0.1-5.1,0.3l-4.9,1.3l-1.1,1.1l3.4,2.4V32  l-1.2,1.4l2,3.7l1.2-0.7l1.5-2.4c2.4-0.7,4.5-1.6,6.8-2.6l1.9-4.7l-2.8-1.1C60,25.4,59.4,25.4,58.9,25.4L58.9,25.4z" fill="#3B97D3"/><polygon fill="#3B97D3" points="62.2,33.9 61.6,33.7 61.6,33.7 61.5,34.8 62.6,35.5 64.4,34.2 63.5,33.2 "/><polygon fill="#3B97D3" points="41.8,34.1 43.4,34.9 44,34.9 44,34.2 42.7,33.4 "/><polygon fill="#3B97D3" points="66.9,39.7 65.8,40 66.1,41.9 67.5,41.2 "/><path d="M43.4,28.6L43.4,28.6L43.4,28.6C43.4,28.6,43.4,28.6,43.4,28.6z" fill="#3B97D3"/><path d="M62.9,106c-1.3,0.1-2.7,0.2-4,0.2c-22.9,0-41.5-18.6-41.5-41.5S36,23.2,58.9,23.2  c22.9,0,41.5,18.6,41.5,41.5c0,8.2-2.4,15.8-6.5,22.3c2.1-1.1,4.4-2.5,6.5-3.6c2.6-5.7,4-12,4-18.7c0-25.1-20.4-45.5-45.5-45.5  S13.4,39.6,13.4,64.7s20.4,45.5,45.5,45.5c3,0,5.9-0.3,8.7-0.8C66.3,108.4,64.6,107.2,62.9,106z" fill="#3B97D3"/><path d="M61.8,68.2c1.3,1.5,2.6,3,3.9,4.5l1.9-1.7l0.8,1l2.1-1.3l0.7,0.9h2.1l1.2,1.3l-0.7,2.3l1.5,1.7l-0.1,2.9  l1.1,2.1l-0.8,1.7c-0.1,1.3-0.2,2.6-0.2,3.9c0,0.1,0.1,0.2,0.1,0.3c0.5-0.2,1.2-0.4,2-0.4c0-0.1,0-0.1-0.1-0.2  c0-0.8,0.1-1.6,0.1-2.5c0-0.2,0-0.4,0-0.5l0.6-1.4c0.3-0.6,0.2-1.2,0-1.7l-0.8-1.6l0.1-2.4c0-0.5-0.2-1-0.5-1.4l-0.7-0.8l0.4-1.2  c0.2-0.7,0-1.4-0.4-2l-1.2-1.3c-0.4-0.4-0.9-0.6-1.5-0.6h-1.1l-0.1-0.1c-0.4-0.5-1-0.7-1.6-0.7c-0.4,0-0.7,0.1-1,0.3l-0.7,0.4  c-0.4-0.3-0.8-0.4-1.2-0.4c-0.5,0-0.9,0.2-1.3,0.5l-0.4,0.4c-0.8-0.9-1.6-1.8-2.4-2.7l-1-2.4l0.8-1.2c0.5-0.7,0.4-1.7-0.1-2.4  l1.1-2.6c1.2-1.5,2.4-2.9,3.7-4.3l1.9-0.5l2.4-0.3l1.1,0.3l2.5,2.5c0.4,0.4,0.9,0.6,1.4,0.6c0,0,0,0,0.1,0c0.6,0,1.1-0.3,1.4-0.7  l0.6-0.7l0.3-0.1l2.1,0.6c0.2,0,0.3,0.1,0.5,0.1h2c0.4,0,0.9-0.1,1.2-0.4l1.4-1c0.1-0.1,0.3-0.2,0.4-0.3l0.6-0.8  c0.4-0.5,0.5-1,0.4-1.6c-0.1-0.6-0.4-1.1-0.9-1.4L86,49.6c-0.3-0.2-0.6-0.3-0.9-0.3l-1.4-0.1c-0.5-0.7-1-1.4-1.6-2.1  c-0.4-0.4-0.9-0.6-1.4-0.6c-0.3,0-0.6,0.1-0.8,0.2l-0.1,0c-0.1-0.2-0.2-0.5-0.4-0.7l-1.5-1.5c-0.4-0.4-0.9-0.6-1.4-0.6h-0.6  c-0.6,0-1.2,0.3-1.5,0.7c-0.2-0.1-0.4-0.1-0.6-0.1c-0.1,0-0.3,0-0.4,0l-2.3,0.5c-0.1,0-0.2,0.1-0.3,0.1l-0.1-0.2l0.7-0.4  c0.7-0.4,1.1-1.2,1-2c0.1-0.1,0.2-0.2,0.3-0.4h0.5c0.3,0,0.5-0.1,0.8-0.2l1.7,0.4c0.1,0,0.3,0,0.4,0c0.5,0,0.9-0.2,1.3-0.5l2.3-1.9  c0.4-0.3,0.6-0.7,0.7-1.2l0-0.1l1.4-0.9c0.3-0.2,0.6-0.5,0.7-0.9l0,0c0.4,0.3,0.8,0.5,1.3,0.5c0.1,0,0.1,0,0.2,0  c0.2,0,0.4-0.1,0.6-0.1c5,4.7,8.6,10.7,10.3,17.2l-0.6-0.6c-0.4-0.4-0.9-0.6-1.4-0.6c-0.3,0-0.5,0-0.8,0.2c-0.7,0.3-1.2,1-1.2,1.8  v2.3c0,0.7,0.3,1.3,0.9,1.7l1.4,0.9l0.9,0.9c0.3,0.3,0.7,0.5,1.1,0.6l-0.2,0.2l-2.3,1.6c-0.1,0.1-0.2,0.1-0.2,0.2l-2,1.9  c-0.6,0.6-0.8,1.5-0.5,2.3c0.3,0.7,1,1.2,1.8,1.2c0,0,0.1,0,0.1,0l-1,2.6l-2.9,4.7c-0.2,0.3-0.3,0.7-0.3,1.1v4.9  c0,0.2,0,0.3,0.1,0.5l0.2,0.9l-1.3,0.8c-0.1,0.1-0.2,0.1-0.2,0.2l-1.8,1.5c-0.4,0.3-0.7,0.8-0.7,1.4c0,0,0,0,0,0  c0.7,0.1,1.4,0.2,2.1,0.2l-0.1-0.1l1.8-1.5l1.7-1.1l0.8-0.9l-0.5-1.9c0-1.6,0-3.3,0-4.9l3-4.9l1.8-4.5V67c-1.6,0.1-1.7,0.2-2.6,0.3  l2-1.9l2.5-1.8l1.3-1.6v-0.5c0-0.5,0.1-0.9,0.1-1.4c-0.6-0.6-0.5-1.1-0.8-1.7L95.3,60l-1-1l-1.6-1.1v-2.3l1.8,1.8l2-0.3  c0.3,0.3,0.7,0.6,1,0.9c-1.5-9.3-6.3-17.4-13.2-23.2l-0.7,0.9l-2-1.8h1.3c-1.2-0.8-2.5-2-3.7-2.8l-0.5-0.4l-3.1,0.7l-2.1,1.2v1.1  l-2.7,1.9l0.9,2.8l1.7-1.2l1.1,1.2l1.2,0.7l0.8-2.1L76,36.1l0.5-0.7l1.7-1.3H79l-0.7,1.2v1.6c0-0.2,1.4-0.3,2.1-0.4l-2,1.4l-0.2,0.9  l-2.3,1.9l-2.4-0.5v-1.4l-1.1,0.6l0.5,1.1h-1.7l-0.5,1l-1-1.2c-0.4-1-0.8-2.2-1.2-3h-1.3v1.4l0.8,0.7v1.6L67.7,43l1.8-0.4l0.4-0.4  l0.2,0.9l-1,0.5l-2.1,0.4l1.2,1.1l0.3,1h-1.5l-3.2,1.5V50H66l0.9,1.3l1.9-0.6l0.8-1.9l1.4-0.9l0.3-0.7l2.3-0.5l1.2,1.4l1.4,0.7  l-0.8,1.5l1.2-0.4l0.6-1.7L75.7,46h0.6l1.5,1.5l0.3,2.1l1.4,1.6l0.3-2.3l0.8-0.4c0.8,0.8,1.4,1.7,2,2.6l2.3,0.2l1.4,0.8L85.8,53  l-1.4,1h-2l-2.6-0.7l-1.4,0.3l-1,1.1l-2.9-2.9l-2-0.5l-2.9,0.3l-2.6,0.7c-1.5,1.7-2.9,3.3-4.3,5.1l-1.7,4l0.8,0.9l-1.4,2.1  L61.8,68.2z M67.4,48.6c-0.1-0.1-0.3-0.3-0.4-0.4l0.5-0.3h0.2L67.4,48.6z" fill="#3B97D3"/><path d="M114.7,82.2c-1.6-2.2-6.5-1.4-8.5,0c-2,1.4-14.9,8.5-14.9,8.5s-8.5-1-12.6-1.4c-4.1-0.4-4.3,2.4-2.2,3.1  c2.2,0.8,4.7,2.8,4.7,2.8l-9.4,5.3c0,0-4.7-1.6-9.4-2.9s-5.7,1.2-3.5,2.9c2.2,1.8,11.8,8.6,11.8,8.6l14.1-5.7c0,0,0,3.7-0.2,5.7  c-0.2,2,1.6,5.1,3.7,1.8c2.2-3.3,6.9-12.4,6.9-12.4s13.6-8.5,16.1-10.2S116.3,84.3,114.7,82.2z M113.2,83.7c-0.1,0.3-0.4,1.2-3,2.9  c-2.5,1.7-15.9,10.1-16,10.2l-0.5,0.3l-0.3,0.5c0,0.1-4.7,9-6.8,12.2c0,0,0,0,0,0c0-0.2-0.1-0.4,0-0.5c0.2-2,0.2-5.7,0.2-5.9v-3  l-15.9,6.4c-2.3-1.7-8.4-6.1-10.5-7.7c0.3,0,0.8,0.1,1.4,0.3c4.6,1.3,9.3,2.9,9.4,2.9l0.8,0.3l12.8-7.2l-2.4-1.8  c-0.1-0.1-1.7-1.3-3.6-2.3c4.2,0.4,12,1.3,12.1,1.3l0.6,0.1l0.6-0.3c1.3-0.7,13.1-7.2,15.1-8.6c0.7-0.5,2.2-1,3.8-1  c1.1,0,1.7,0.3,1.9,0.5C113.2,83.5,113.2,83.6,113.2,83.7z" fill="#2C3E50"/></svg>